<svg width="209" height="20" viewBox="0 0 209 20" fill="none" xmlns="http://www.w3.org/2000/svg">
<path d="M40.0919 0.00695894H37.6598L35.9967 10.501C35.7531 12.0912 36.2124 13.7091 37.2632 14.9304C38.3139 16.1552 39.8379 16.8546 41.4524 16.8546H48.199C50.8607 16.8546 53.1432 14.9548 53.6268 12.3347L56.0172 0.00695894H53.5851L51.3165 11.5379C50.8746 13.3507 49.2637 14.6173 47.3952 14.6173H42.3187C41.1218 14.6173 39.9945 14.0919 39.2255 13.1733C38.4566 12.2582 38.1365 11.0543 38.3453 9.87822L40.0919 0.00695894Z" fill="#DA0003"/>
<path d="M56.8418 0.00695894L54.4201 12.4878C53.8704 15.4871 51.2539 17.6653 48.199 17.6653H41.4524C39.6048 17.6653 37.8547 16.8615 36.6508 15.4593C35.4469 14.0571 34.918 12.206 35.1999 10.3793L36.8422 0.00695894H34.6292L33.0496 8.94572C32.5625 11.6945 33.314 14.499 35.1059 16.6354C36.9013 18.7752 39.5283 20 42.3222 20H47.3987C51.7549 20 55.5162 17.0459 56.5461 12.8114L59.1243 0.00695894H56.8383H56.8418Z" fill="#DA0003"/>
<path d="M64.5661 0.00695894H62.1723L58.2927 19.9861H60.6379L64.5661 0.00695894Z" fill="#DA0003"/>
<path d="M65.3873 0.00695894L61.459 19.9861H63.8459L67.7289 0.00695894H65.3873Z" fill="#DA0003"/>
<path d="M157.835 0.00695894H155.445L151.562 19.9861H153.907L157.835 0.00695894Z" fill="white"/>
<path d="M158.66 0.00695894L154.732 19.9861H157.115L160.998 0.00695894H158.66Z" fill="white"/>
<path d="M78.7099 3.2881C74.7608 3.2881 71.5319 6.56576 71.5319 10.515V10.8594C71.5319 14.1232 74.1867 16.778 77.4504 16.778H90.4599L90.8809 14.6207H77.5896C76.4796 14.6207 75.4323 14.1336 74.7156 13.2881C73.9988 12.4426 73.6926 11.3292 73.8735 10.2331L74.0058 9.43633C74.3954 7.09116 76.4065 5.3897 78.783 5.3897H92.6728L93.0799 3.2881H78.7099Z" fill="#DA0003"/>
<path d="M77.4504 17.5818C73.7413 17.5818 70.7247 14.5651 70.7247 10.856V10.5115C70.7247 6.11691 74.3119 2.47738 78.7099 2.47738H93.2365L93.7166 0.00347947H78.783C73.7622 0.00347947 69.5208 3.59777 68.6997 8.54906L68.5674 9.34586C68.1256 12.0042 68.8701 14.7042 70.6133 16.7606C72.353 18.817 74.9 19.993 77.593 19.993L89.8406 19.9826L90.3068 17.5783H77.4539L77.4504 17.5818Z" fill="#DA0003"/>
<path d="M100.648 0.00695894L98.7966 9.62422H110.818L116.789 0.00695894H114.12L109.36 7.31733L101.594 7.30689L103.01 0.00695894H100.648Z" fill="#DA0003"/>
<path d="M99.8265 0.00695894H97.457L93.574 19.9861H95.9817L99.8265 0.00695894Z" fill="#DA0003"/>
<path d="M112.568 19.9861H114.816L115.129 17.2791C115.359 15.1983 114.76 13.0759 113.57 11.7432C112.798 10.8838 111.851 10.428 110.825 10.428H98.6435L96.8064 19.9826H99.1306L100.55 12.6827H108.925C110.136 12.6827 111.27 13.2185 112.039 14.151C112.808 15.0835 113.118 16.2978 112.888 17.4878L112.572 19.9826L112.568 19.9861Z" fill="#DA0003"/>
<path d="M114.565 9.1858L120.543 0.00695894H117.739L111.709 9.71816C112.624 9.91649 113.462 10.4175 114.169 11.2074C115.508 12.7035 116.183 15.0661 115.929 17.3695L115.626 19.9861H117.986L118.184 18.4203C118.685 15.682 117.961 12.8845 116.187 10.7307C115.703 10.1461 115.157 9.6277 114.565 9.1858Z" fill="#DA0003"/>
<path d="M191.356 19.9861H187.146L191.029 0.00695894H195.239L191.356 19.9861Z" fill="white"/>
<path d="M196.011 19.9861H192.876L196.759 0.00695894H199.894L196.011 19.9861Z" fill="white"/>
<path d="M199.588 19.9861H197.532L201.411 0.00695894H203.468L199.585 19.9861H199.588Z" fill="white"/>
<path d="M201.098 19.9861L204.985 0.00695894H206.505L202.622 19.9861H201.098Z" fill="white"/>
<path d="M205.117 19.9861H204.136L208.019 0.00695894H209L205.117 19.9861Z" fill="white"/>
<path d="M126.44 0.00695894L124.659 9.14753L126.99 16.7467H129.342L135.41 8.50383L137.018 0.00695894H134.728L133.319 7.09464L128.549 13.9074L126.952 8.92832L128.695 0.00695894H126.44Z" fill="white"/>
<path d="M137.839 0.00695894L136.179 8.77175L138.657 16.7432H140.744L147.188 8.20111L148.698 0.00347947H146.318C146.2 0.581072 144.916 7.09116 144.916 7.09116L140.132 13.8587L138.559 8.92136C138.559 8.92136 140.264 0.100905 140.285 0H137.843L137.839 0.00695894Z" fill="white"/>
<path d="M149.516 0.00695894L147.943 8.53862L141.145 17.5539H138.062L135.595 9.61378L129.749 17.5539H126.395L123.831 9.19276L125.619 0.00695894H123.142L121.35 9.17537L124.725 19.9861H130.936L134.638 14.6695L136.312 19.9861H142.522C142.602 19.8852 150.08 9.19624 150.08 9.17537L151.872 0.00695894H149.516Z" fill="white"/>
<path d="M187.257 0.00695894L183.934 17.5191H181.21L168.646 3.72303H167.376L164.505 19.9861H166.784L169.154 7.78358L180.103 19.9861H185.629L189.512 0.00695894H187.257Z" fill="white"/>
<path d="M166.697 2.9158H169.001L181.568 16.7119H183.266L186.436 0.00695894H183.987L181.537 12.46L170.667 0.00695894H165.111L161.228 19.9861H163.688L166.697 2.9158Z" fill="white"/>
<path d="M29.5634 4.55115C27.8898 1.70494 24.9289 0.00695894 21.6373 0.00695894H11.5401C7.44134 0.00695894 3.58963 2.17467 1.48807 5.66806C1.32106 5.94294 1.21319 6.1517 1.15404 6.26653C-0.432569 9.16145 -0.380377 12.5818 1.29322 15.4315C2.96682 18.2777 5.9278 19.9756 9.21584 19.9756H19.3131C20.604 19.9756 21.867 19.753 23.0639 19.3493L23.5023 19.9756H25.7222L19.3201 10.6855H17.0202L19.7341 14.5755C19.5949 14.5859 19.4558 14.5964 19.3131 14.5964H9.21584C7.83452 14.5964 6.6376 13.9074 5.93128 12.707C5.22148 11.5031 5.20408 10.0557 5.88604 8.83438L5.94519 8.71955C5.94519 8.71955 5.99739 8.61517 6.09829 8.44816C7.23258 6.56228 9.32022 5.39318 11.5436 5.39318H21.6408C23.0222 5.39318 24.2191 6.08212 24.9254 7.28253C25.6352 8.48643 25.6526 9.93389 24.9706 11.1552L24.9115 11.27C24.9115 11.27 24.8593 11.3744 24.7584 11.5414C24.5218 11.9346 24.2365 12.293 23.9233 12.62L22.5733 10.6855H20.2978L26.6999 19.9756H29.0554L27.0304 17.0738C27.9386 16.2874 28.7353 15.3653 29.3686 14.3145C29.5356 14.0397 29.6469 13.8309 29.7026 13.7161C31.2892 10.8212 31.237 7.40084 29.5634 4.55115ZM27.6776 12.6548C27.6776 12.6548 27.5871 12.8427 27.4097 13.1315C26.9469 13.904 26.3728 14.5894 25.7187 15.1844L25.2525 14.5164C25.8161 13.9875 26.3137 13.3855 26.7173 12.714C26.8773 12.4495 26.9574 12.2825 26.9608 12.2791C28.0464 10.3236 28.0221 8.02714 26.8982 6.11691C25.7883 4.22756 23.8224 3.10021 21.6408 3.10021H11.5436C8.52344 3.10021 5.68772 4.69381 4.13938 7.26166C3.97933 7.5261 3.8993 7.69311 3.89582 7.69659C2.81024 9.65205 2.8346 11.9485 3.95845 13.8587C5.06838 15.7481 7.03425 16.8754 9.21584 16.8754H19.3131C19.9533 16.8754 20.5796 16.7989 21.192 16.6597L21.6895 17.3695C20.9206 17.5713 20.1238 17.6792 19.3131 17.6792H9.21584C6.74546 17.6792 4.52211 16.4022 3.26257 14.2624C1.99258 12.1016 1.96127 9.50592 3.17906 7.31733C3.17906 7.31733 3.26953 7.12944 3.44698 6.84064C5.13797 4.03271 8.24161 2.28601 11.5401 2.28601H21.6373C24.1077 2.28601 26.3311 3.56298 27.5906 5.70285C28.8606 7.86361 28.8919 10.4593 27.6741 12.6479L27.6776 12.6548Z" fill="#DA0003"/>
</svg>
